<?xml version="1.0" encoding="utf-8"?>
<!-- Generator: Adobe Illustrator 26.0.3, SVG Export Plug-In . SVG Version: 6.00 Build 0)  -->
<svg version="1.0" id="katman_1" xmlns="http://www.w3.org/2000/svg" xmlns:xlink="http://www.w3.org/1999/xlink" x="0px" y="0px"
	 viewBox="0 0 600 450" style="enable-background:new 0 0 600 450;" xml:space="preserve">
<style type="text/css">
	.st0{fill:#FFFFFF;}
</style>
<g>
	<path d="M392.6,198.8l-19.2-8l22.9-12.2c29.3-15.5,40.5-51.8,25-81.1c-15.5-29.3-51.8-40.5-81.1-25L204,144.7
		c-29.3,15.3-40.7,51.5-25.4,80.9c6.3,12.1,16.6,21.7,29.1,27.1l19.2,7.9L204,272.7c-28.9,16.3-39.1,53-22.8,81.9
		c15.7,27.8,50.3,38.5,78.9,24.4l136.2-72.1c29.3-15.3,40.7-51.5,25.4-80.9C415.3,213.9,405.1,204.3,392.6,198.8z"/>
	<polygon class="st0" points="268.1,268.2 348.2,225.8 268.1,183.3 	"/>
</g>
</svg>
