
<!-- Created with Inkscape (http://www.inkscape.org/) -->

<svg
   width="129.25722mm"
   height="161.43184mm"
   viewBox="0 0 129.25722 161.43184"
   version="1.1"
   id="svg5"
   inkscape:version="1.1.2 (b8e25be833, 2022-02-05)"
   sodipodi:docname="YouTube Shorts (Outline).svg"
   xmlns:inkscape="http://www.inkscape.org/namespaces/inkscape"
   xmlns:sodipodi="http://sodipodi.sourceforge.net/DTD/sodipodi-0.dtd"
   xmlns="http://www.w3.org/2000/svg"
   xmlns:svg="http://www.w3.org/2000/svg">
  <g
     inkscape:label="Layer 1"
     inkscape:groupmode="layer"
     id="layer1"
     transform="translate(-2.0996539,-2.5584263)">
    <g
       style="display:block"
       id="g1003"
       transform="matrix(8.0741622,0,0,8.0741622,-30.161892,-13.615597)">
      <path
         d="M 10,14.65 V 9.35 L 15,12 Z m 7.77,-4.33 C 17,10 16.57,9.82 16.57,9.82 L 18,9.06 C 19.84,8.1 20.53,5.83 19.56,4 18.59,2.17 16.32,1.47 14.49,2.44 L 6,6.94 c -1.29,0.68 -2.07,2.04 -2,3.49 0.07,1.42 0.93,2.67 2.22,3.25 0.03,0.01 1.2,0.5 1.2,0.5 L 6,14.93 C 4.17,15.9 3.47,18.17 4.44,20 c 0.97,1.83 3.24,2.53 5.07,1.56 l 8.5,-4.5 C 19.3,16.38 20.07,15.02 20,13.57 19.93,12.15 19.06,10.89 17.77,10.32 Z m -0.23,5.86 -8.5,4.5 C 7.7,21.39 6.03,20.88 5.32,19.54 4.61,18.2 5.12,16.53 6.46,15.82 L 8.5,14.74 V 13.53 L 7.81,13.25 6.7,12.79 C 5.71,12.38 5.05,11.44 5,10.38 4.95,9.32 5.52,8.32 6.46,7.82 l 8.5,-4.5 c 1.34,-0.71 3.01,-0.2 3.72,1.14 0.71,1.34 0.2,3.01 -1.14,3.72 L 15.5,9.26 v 1.21 l 1.8,0.74 c 0.99,0.41 1.65,1.35 1.7,2.41 0.05,1.06 -0.52,2.06 -1.46,2.56 z"
         class="style-scope yt-icon"
         id="path991" />
    </g>
  </g>
</svg>
